<svg xmlns="http://www.w3.org/2000/svg" width="256" height="256" viewBox="0 0 100 100"><rect width="100" height="100" rx="50" fill="#0a131e"></rect><path fill="#ffffff" d="M9.68 49.82L9.68 49.82Q11.00 50.50 11.74 51.88Q12.48 53.26 12.48 55.38L12.48 55.38L12.48 60.62Q12.48 62.02 13.02 62.60Q13.56 63.18 14.72 63.22L14.72 63.22Q14.84 63.70 14.84 64.14L14.84 64.14Q14.84 64.70 14.48 65.06Q14.12 65.42 13.40 65.42L13.40 65.42Q11.72 65.42 10.66 64.22Q9.60 63.02 9.60 60.62L9.60 60.62L9.60 55.70Q9.60 51.54 6.56 51.06L6.56 51.06Q6.40 50.86 6.34 50.48Q6.28 50.10 6.28 49.82L6.28 49.82Q6.28 49.54 6.36 49.18Q6.44 48.82 6.56 48.58L6.56 48.58Q9.60 48.10 9.60 43.98L9.60 43.98L9.60 39.34Q9.60 36.94 10.66 35.76Q11.72 34.58 13.40 34.58L13.40 34.58Q14.84 34.58 14.84 35.86L14.84 35.86Q14.84 36.30 14.72 36.78L14.72 36.78Q13.56 36.78 13.02 37.36Q12.48 37.94 12.48 39.38L12.48 39.38L12.48 44.26Q12.48 46.42 11.74 47.78Q11.00 49.14 9.68 49.82ZM34.72 39.26L28.12 39.26L28.12 60.74Q27.92 60.82 27.50 60.92Q27.08 61.02 26.64 61.02L26.64 61.02Q24.88 61.02 24.88 59.54L24.88 59.54L24.88 39.26L17.40 39.26Q17.28 39.06 17.16 38.72Q17.04 38.38 17.04 37.94L17.04 37.94Q17.04 37.26 17.36 36.88Q17.68 36.50 18.28 36.50L18.28 36.50L35.60 36.50Q35.72 36.70 35.84 37.04Q35.96 37.38 35.96 37.78L35.96 37.78Q35.96 38.46 35.64 38.86Q35.32 39.26 34.72 39.26L34.72 39.26ZM57.56 48.38L57.56 48.38Q57.56 45.82 56.78 44.00Q56.00 42.18 54.66 41.02Q53.32 39.86 51.54 39.32Q49.76 38.78 47.72 38.78L47.72 38.78Q46.44 38.78 45.50 38.86Q44.56 38.94 43.76 39.10L43.76 39.10L43.76 58.14Q44.72 58.38 45.82 58.46Q46.92 58.54 48.08 58.54L48.08 58.54Q52.80 58.54 55.18 55.98Q57.56 53.42 57.56 48.38ZM60.88 48.38L60.88 48.38Q60.88 51.66 59.98 54.08Q59.08 56.50 57.42 58.10Q55.76 59.70 53.40 60.48Q51.04 61.26 48.12 61.26L48.12 61.26Q46.84 61.26 45.24 61.16Q43.64 61.06 42.20 60.62L42.20 60.62Q40.52 60.10 40.52 58.78L40.52 58.78L40.52 38.22Q40.52 37.58 40.84 37.24Q41.16 36.90 41.84 36.70L41.84 36.70Q43.08 36.30 44.64 36.18Q46.20 36.06 47.76 36.06L47.76 36.06Q50.68 36.06 53.10 36.84Q55.52 37.62 57.24 39.16Q58.96 40.70 59.92 43.00Q60.88 45.30 60.88 48.38ZM73.32 58.62L73.32 58.62Q76 58.62 77.38 57.40Q78.76 56.18 78.76 54.26L78.76 54.26Q78.76 52.58 77.70 51.54Q76.64 50.50 74.36 49.82L74.36 49.82L70.88 48.78Q68.32 48.02 66.86 46.54Q65.40 45.06 65.40 42.54L65.40 42.54Q65.40 41.02 65.98 39.80Q66.56 38.58 67.64 37.74Q68.72 36.90 70.22 36.44Q71.72 35.98 73.60 35.98L73.60 35.98Q75.20 35.98 76.58 36.24Q77.96 36.50 78.98 36.96Q80 37.42 80.56 37.98Q81.12 38.54 81.12 39.14L81.12 39.14Q81.12 39.70 80.84 40.10Q80.56 40.50 80.12 40.74L80.12 40.74Q79.08 39.94 77.42 39.34Q75.76 38.74 73.72 38.74L73.72 38.74Q71.36 38.74 70.02 39.74Q68.68 40.74 68.68 42.54L68.68 42.54Q68.68 43.94 69.64 44.82Q70.60 45.70 72.84 46.34L72.84 46.34L75.28 47.06Q78.44 47.98 80.26 49.64Q82.08 51.30 82.08 54.26L82.08 54.26Q82.08 57.42 79.80 59.38Q77.52 61.34 73.32 61.34L73.32 61.34Q71.48 61.34 69.98 61.02Q68.48 60.70 67.42 60.18Q66.36 59.66 65.78 59.04Q65.20 58.42 65.20 57.82L65.20 57.82Q65.20 57.14 65.62 56.68Q66.04 56.22 66.60 56.02L66.60 56.02Q67.04 56.46 67.68 56.92Q68.32 57.38 69.16 57.76Q70.00 58.14 71.04 58.38Q72.08 58.62 73.32 58.62ZM90.32 49.82L90.32 49.82Q89 49.14 88.26 47.78Q87.52 46.42 87.52 44.26L87.52 44.26L87.52 39.38Q87.52 37.94 86.98 37.36Q86.44 36.78 85.28 36.78L85.28 36.78Q85.16 36.30 85.16 35.86L85.16 35.86Q85.16 34.58 86.60 34.58L86.60 34.58Q88.28 34.58 89.34 35.76Q90.40 36.94 90.40 39.34L90.40 39.34L90.40 43.98Q90.40 48.10 93.44 48.58L93.44 48.58Q93.56 48.82 93.64 49.18Q93.72 49.54 93.72 49.82L93.72 49.82Q93.72 50.10 93.66 50.48Q93.60 50.86 93.44 51.06L93.44 51.06Q90.40 51.54 90.40 55.70L90.40 55.70L90.40 60.62Q90.40 63.02 89.34 64.22Q88.28 65.42 86.60 65.42L86.60 65.42Q85.88 65.42 85.52 65.06Q85.16 64.70 85.16 64.14L85.16 64.14Q85.16 63.70 85.28 63.22L85.28 63.22Q86.44 63.18 86.98 62.60Q87.52 62.02 87.52 60.62L87.52 60.62L87.52 55.38Q87.52 53.26 88.26 51.88Q89 50.50 90.32 49.82Z"></path></svg>