<svg width="25" height="34" viewBox="0 0 25 34" fill="none" xmlns="http://www.w3.org/2000/svg">
<path d="M23.375 7.33333H1.375C0.623333 7.33333 0 6.71 0 5.95833C0 5.20667 0.623333 4.58333 1.375 4.58333H23.375C24.1267 4.58333 24.75 5.20667 24.75 5.95833C24.75 6.71 24.1267 7.33333 23.375 7.33333Z" fill="#0080FF"/>
<path d="M17.875 2.75H6.875C6.12333 2.75 5.5 2.12667 5.5 1.375C5.5 0.623333 6.12333 0 6.875 0H17.875C18.6267 0 19.25 0.623333 19.25 1.375C19.25 2.12667 18.6267 2.75 17.875 2.75Z" fill="#0080FF"/>
<path d="M12.375 15.125C9.9733 15.125 8.0208 17.0775 8.0208 19.4792C8.0208 21.835 9.8633 23.7417 12.265 23.8242C12.3383 23.815 12.4116 23.815 12.4666 23.8242C12.485 23.8242 12.4941 23.8242 12.5125 23.8242C12.5216 23.8242 12.5216 23.8242 12.5308 23.8242C14.8775 23.7417 16.72 21.835 16.7291 19.4792C16.7291 17.0775 14.7766 15.125 12.375 15.125Z" fill="#0080FF"/>
<path d="M17.0316 26.2625C14.4741 24.5575 10.3033 24.5575 7.72746 26.2625C6.5633 27.0417 5.92163 28.0958 5.92163 29.2233C5.92163 30.3508 6.5633 31.3958 7.7183 32.1658C9.00163 33.0275 10.6883 33.4583 12.375 33.4583C14.0616 33.4583 15.7483 33.0275 17.0316 32.1658C18.1866 31.3867 18.8283 30.3417 18.8283 29.205C18.8191 28.0775 18.1866 27.0325 17.0316 26.2625Z" fill="#0080FF"/>
</svg>
