<svg width="31" height="31" viewBox="0 0 31 31" fill="none" xmlns="http://www.w3.org/2000/svg">
<g opacity="0.2">
<path d="M7.78333 29.8833C7.73333 29.8833 7.66667 29.9167 7.61667 29.9167C4.38333 28.3167 1.75 25.6667 0.133333 22.4333C0.133333 22.3833 0.166667 22.3167 0.166667 22.2667C2.2 22.8667 4.3 23.3167 6.38333 23.6667C6.75 25.7667 7.18333 27.85 7.78333 29.8833Z" fill="#0080FF"/>
<path d="M29.9333 22.45C28.2833 25.7667 25.5333 28.45 22.1833 30.0667C22.8167 27.95 23.35 25.8167 23.7 23.6667C25.8 23.3167 27.8667 22.8667 29.9 22.2667C29.8833 22.3333 29.9333 22.4 29.9333 22.45Z" fill="#0080FF"/>
<path d="M30.0667 7.88333C27.9667 7.25 25.85 6.73333 23.7 6.36667C23.35 4.21667 22.8333 2.08333 22.1833 0C25.6333 1.65 28.4167 4.43333 30.0667 7.88333Z" fill="#0080FF"/>
<path d="M7.78333 0.183333C7.18333 2.21667 6.75 4.28333 6.4 6.38333C4.25 6.71667 2.11667 7.25 0 7.88333C1.61667 4.53333 4.3 1.78333 7.61667 0.133333C7.66667 0.133333 7.73333 0.183333 7.78333 0.183333Z" fill="#0080FF"/>
</g>
</svg>
