<svg width="34" height="34" viewBox="0 0 34 34" fill="none" xmlns="http://www.w3.org/2000/svg">
<path d="M22.4833 7.65C18.6167 7.21667 14.7167 7.21667 10.85 7.65C11.2667 5.36667 11.8 3.08333 12.55 0.883333C12.5833 0.75 12.5667 0.65 12.5833 0.516667C13.9 0.2 15.25 0 16.6667 0C18.0667 0 19.4333 0.2 20.7333 0.516667C20.75 0.65 20.75 0.75 20.7833 0.883333C21.5333 3.1 22.0667 5.36667 22.4833 7.65Z" fill="#0080FF"/>
<path d="M7.65 22.4833C5.35 22.0667 3.08333 21.5333 0.883333 20.7833C0.75 20.75 0.65 20.7667 0.516667 20.75C0.2 19.4333 0 18.0833 0 16.6667C0 15.2667 0.2 13.9 0.516667 12.6C0.65 12.5833 0.75 12.5833 0.883333 12.55C3.1 11.8167 5.35 11.2667 7.65 10.85C7.23333 14.7167 7.23333 18.6167 7.65 22.4833Z" fill="#0080FF"/>
<path d="M33.3333 16.6667C33.3333 18.0833 33.1333 19.4333 32.8167 20.75C32.6833 20.7667 32.5833 20.75 32.45 20.7833C30.2333 21.5167 27.9667 22.0667 25.6833 22.4833C26.1167 18.6167 26.1167 14.7167 25.6833 10.85C27.9667 11.2667 30.25 11.8 32.45 12.55C32.5833 12.5833 32.6833 12.6 32.8167 12.6C33.1333 13.9167 33.3333 15.2667 33.3333 16.6667Z" fill="#0080FF"/>
<path d="M22.4833 25.6833C22.0667 27.9833 21.5333 30.25 20.7833 32.45C20.75 32.5833 20.75 32.6833 20.7333 32.8167C19.4333 33.1333 18.0667 33.3333 16.6667 33.3333C15.25 33.3333 13.9 33.1333 12.5833 32.8167C12.5667 32.6833 12.5833 32.5833 12.55 32.45C11.8167 30.2333 11.2667 27.9833 10.85 25.6833C12.7833 25.9 14.7167 26.05 16.6667 26.05C18.6167 26.05 20.5667 25.9 22.4833 25.6833Z" fill="#0080FF"/>
<path d="M22.9389 22.9389C18.7704 23.4648 14.5629 23.4648 10.3944 22.9389C9.86852 18.7704 9.86852 14.5629 10.3944 10.3944C14.5629 9.86852 18.7704 9.86852 22.9389 10.3944C23.4648 14.5629 23.4648 18.7704 22.9389 22.9389Z" fill="#0080FF"/>
</svg>
