<svg width="44" height="44" viewBox="0 0 44 44" fill="none" xmlns="http://www.w3.org/2000/svg">
<path opacity="0.2" d="M38.5 3.66669V25.85C38.5 29.3334 36.6667 31.1667 33.1833 31.1667H10.8167C7.33332 31.1667 5.5 29.3334 5.5 25.85V3.66669H38.5Z" fill="#0080FF"/>
<path d="M40.3332 5.04169H3.6665C2.91484 5.04169 2.2915 4.41835 2.2915 3.66669C2.2915 2.91502 2.91484 2.29169 3.6665 2.29169H40.3332C41.0848 2.29169 41.7082 2.91502 41.7082 3.66669C41.7082 4.41835 41.0848 5.04169 40.3332 5.04169Z" fill="#0080FF"/>
<path d="M30.5615 40.9567C30.3232 41.4333 29.8282 41.7084 29.3332 41.7084C29.1315 41.7084 28.9115 41.6534 28.7282 41.5617L21.9998 38.2067L15.2715 41.5617C15.0881 41.6534 14.8682 41.7084 14.6665 41.7084C14.1715 41.7084 13.6765 41.4333 13.4381 40.9567C13.0898 40.26 13.3648 39.435 14.0615 39.105L20.6248 35.8234V31.1667H23.3748V35.8234L29.9381 39.105C30.6348 39.435 30.9098 40.26 30.5615 40.9567Z" fill="#0080FF"/>
<path d="M13.7498 21.5417C13.3648 21.5417 12.9615 21.3767 12.6865 21.0467C12.1915 20.46 12.2831 19.5984 12.8698 19.1034L18.6448 14.2817C19.1765 13.8417 19.8548 13.6583 20.4965 13.7683C21.1565 13.8783 21.7248 14.2816 22.0732 14.8683L23.9981 18.0766L29.3698 13.6034C29.9565 13.1084 30.8181 13.2 31.3131 13.7866C31.8081 14.3733 31.7165 15.235 31.1298 15.73L25.3548 20.5516C24.8231 20.9916 24.1448 21.175 23.5032 21.065C22.8432 20.955 22.2748 20.5517 21.9265 19.965L20.0015 16.7567L14.6298 21.23C14.3732 21.4316 14.0615 21.5417 13.7498 21.5417Z" fill="#0080FF"/>
</svg>
