<svg width="44" height="44" viewBox="0 0 44 44" fill="none" xmlns="http://www.w3.org/2000/svg">
<path opacity="0.2" d="M36.6667 18.0397C37.675 18.0397 38.5 18.8647 38.5 19.8731V31.1664C38.5 36.6664 35.75 40.3331 29.3333 40.3331H14.6667C8.25 40.3331 5.5 36.6664 5.5 31.1664V19.8731C5.5 18.8647 6.325 18.0397 7.33333 18.0397H36.6667Z" fill="#0080FF"/>
<path d="M30.7084 6.52668V3.66669C30.7084 2.91502 30.0851 2.29169 29.3334 2.29169C28.5818 2.29169 27.9584 2.91502 27.9584 3.66669V6.41669H16.0418V3.66669C16.0418 2.91502 15.4184 2.29169 14.6668 2.29169C13.9151 2.29169 13.2918 2.91502 13.2918 3.66669V6.52668C8.34176 6.98502 5.94009 9.93668 5.57343 14.3183C5.53676 14.85 5.97676 15.29 6.49009 15.29H37.5101C38.0418 15.29 38.4818 14.8317 38.4268 14.3183C38.0601 9.93668 35.6584 6.98502 30.7084 6.52668Z" fill="#0080FF"/>
<path d="M15.5834 27.5C15.1068 27.5 14.6301 27.2983 14.2818 26.9683C13.9518 26.62 13.7501 26.1433 13.7501 25.6667C13.7501 25.19 13.9518 24.7134 14.2818 24.365C14.7951 23.8517 15.6018 23.6867 16.2801 23.98C16.5184 24.0717 16.7201 24.2 16.8851 24.365C17.2151 24.7134 17.4168 25.19 17.4168 25.6667C17.4168 26.1433 17.2151 26.62 16.8851 26.9683C16.5368 27.2983 16.0601 27.5 15.5834 27.5Z" fill="#0080FF"/>
<path d="M22.0001 27.5C21.5234 27.5 21.0468 27.2983 20.6984 26.9683C20.3684 26.62 20.1668 26.1433 20.1668 25.6667C20.1668 25.19 20.3684 24.7134 20.6984 24.365C20.8634 24.2 21.0651 24.0717 21.3034 23.98C21.9818 23.6867 22.7884 23.8517 23.3018 24.365C23.6318 24.7134 23.8334 25.19 23.8334 25.6667C23.8334 26.1433 23.6318 26.62 23.3018 26.9683C23.2101 27.0417 23.1184 27.115 23.0268 27.1883C22.9168 27.2617 22.8068 27.3167 22.6968 27.3534C22.5868 27.4084 22.4768 27.445 22.3668 27.4634C22.2384 27.4817 22.1284 27.5 22.0001 27.5Z" fill="#0080FF"/>
<path d="M28.4168 27.5C27.9401 27.5 27.4634 27.2984 27.1151 26.9684C26.7851 26.62 26.5834 26.1434 26.5834 25.6667C26.5834 25.19 26.7851 24.7134 27.1151 24.3651C27.2984 24.2001 27.4818 24.0717 27.7201 23.98C28.0501 23.8334 28.4168 23.7967 28.7834 23.87C28.8934 23.8884 29.0034 23.925 29.1134 23.98C29.2234 24.0167 29.3334 24.0717 29.4434 24.1451C29.5351 24.2184 29.6268 24.2917 29.7184 24.3651C30.0484 24.7134 30.2501 25.19 30.2501 25.6667C30.2501 26.1434 30.0484 26.62 29.7184 26.9684C29.6268 27.0417 29.5351 27.115 29.4434 27.1884C29.3334 27.2617 29.2234 27.3167 29.1134 27.3534C29.0034 27.4084 28.8934 27.4451 28.7834 27.4634C28.6551 27.4817 28.5268 27.5 28.4168 27.5Z" fill="#0080FF"/>
<path d="M15.5834 33.9167C15.3451 33.9167 15.1068 33.8617 14.8868 33.7701C14.6484 33.6784 14.4651 33.55 14.2818 33.385C13.9518 33.0367 13.7501 32.56 13.7501 32.0834C13.7501 31.6067 13.9518 31.1301 14.2818 30.7817C14.4651 30.6167 14.6484 30.4884 14.8868 30.3967C15.2168 30.25 15.5834 30.2134 15.9501 30.2867C16.0601 30.305 16.1701 30.3417 16.2801 30.3967C16.3901 30.4334 16.5001 30.4884 16.6101 30.5617C16.7018 30.6351 16.7934 30.7084 16.8851 30.7817C17.2151 31.1301 17.4168 31.6067 17.4168 32.0834C17.4168 32.56 17.2151 33.0367 16.8851 33.385C16.7934 33.4584 16.7018 33.55 16.6101 33.605C16.5001 33.6784 16.3901 33.7334 16.2801 33.7701C16.1701 33.8251 16.0601 33.8617 15.9501 33.8801C15.8218 33.8984 15.7118 33.9167 15.5834 33.9167Z" fill="#0080FF"/>
<path d="M22.0001 33.9167C21.5234 33.9167 21.0468 33.715 20.6984 33.385C20.3684 33.0367 20.1668 32.56 20.1668 32.0834C20.1668 31.6067 20.3684 31.13 20.6984 30.7817C21.3768 30.1034 22.6234 30.1034 23.3018 30.7817C23.6318 31.13 23.8334 31.6067 23.8334 32.0834C23.8334 32.56 23.6318 33.0367 23.3018 33.385C22.9534 33.715 22.4768 33.9167 22.0001 33.9167Z" fill="#0080FF"/>
<path d="M28.4168 33.9167C27.9401 33.9167 27.4634 33.715 27.1151 33.385C26.7851 33.0367 26.5834 32.56 26.5834 32.0834C26.5834 31.6067 26.7851 31.13 27.1151 30.7817C27.7934 30.1034 29.0401 30.1034 29.7184 30.7817C30.0484 31.13 30.2501 31.6067 30.2501 32.0834C30.2501 32.56 30.0484 33.0367 29.7184 33.385C29.3701 33.715 28.8934 33.9167 28.4168 33.9167Z" fill="#0080FF"/>
</svg>
