<svg width="44" height="44" viewBox="0 0 44 44" fill="none" xmlns="http://www.w3.org/2000/svg">
<path d="M29.3332 14.6667H14.6665V29.3334H29.3332V14.6667Z" fill="#0080FF"/>
<g opacity="0.2">
<path d="M9.1665 40.3334C12.1915 40.3334 14.6665 37.8584 14.6665 34.8334V29.3334H9.1665C6.1415 29.3334 3.6665 31.8084 3.6665 34.8334C3.6665 37.8584 6.1415 40.3334 9.1665 40.3334Z" fill="#0080FF"/>
<path d="M9.1665 14.6667H14.6665V9.16675C14.6665 6.14175 12.1915 3.66675 9.1665 3.66675C6.1415 3.66675 3.6665 6.14175 3.6665 9.16675C3.6665 12.1917 6.1415 14.6667 9.1665 14.6667Z" fill="#0080FF"/>
<path d="M29.3332 14.6667H34.8332C37.8582 14.6667 40.3332 12.1917 40.3332 9.16675C40.3332 6.14175 37.8582 3.66675 34.8332 3.66675C31.8082 3.66675 29.3332 6.14175 29.3332 9.16675V14.6667Z" fill="#0080FF"/>
<path d="M34.8332 40.3334C37.8582 40.3334 40.3332 37.8584 40.3332 34.8334C40.3332 31.8084 37.8582 29.3334 34.8332 29.3334H29.3332V34.8334C29.3332 37.8584 31.8082 40.3334 34.8332 40.3334Z" fill="#0080FF"/>
</g>
</svg>
