<svg width="44" height="44" viewBox="0 0 44 44" fill="none" xmlns="http://www.w3.org/2000/svg">
<path opacity="0.2" d="M31.167 37.5834H12.8337C7.33366 37.5834 3.66699 34.8334 3.66699 28.4167V15.5834C3.66699 9.16669 7.33366 6.41669 12.8337 6.41669H31.167C36.667 6.41669 40.3337 9.16669 40.3337 15.5834V28.4167C40.3337 34.8334 36.667 37.5834 31.167 37.5834Z" fill="#0080FF"/>
<path d="M21.9998 23.5949C20.4598 23.5949 18.9014 23.1183 17.7098 22.1466L11.9714 17.5633C11.3848 17.0866 11.2748 16.2249 11.7514 15.6383C12.2281 15.0516 13.0898 14.9416 13.6764 15.4183L19.4147 20.0016C20.8081 21.12 23.1731 21.12 24.5664 20.0016L30.3048 15.4183C30.8914 14.9416 31.7714 15.0333 32.2298 15.6383C32.7064 16.2249 32.6148 17.1049 32.0098 17.5633L26.2714 22.1466C25.0981 23.1183 23.5398 23.5949 21.9998 23.5949Z" fill="#0080FF"/>
</svg>
