<svg width="44" height="44" viewBox="0 0 44 44" fill="none" xmlns="http://www.w3.org/2000/svg">
<path opacity="0.2" d="M33.0193 16.4822L11.9176 37.5838C10.396 39.1055 7.93928 39.1055 6.41762 37.5838C4.89595 36.0622 4.89595 33.6055 6.41762 32.0838L27.5193 10.9822L33.0193 16.4822Z" fill="#0080FF"/>
<path d="M35.749 13.75L33.0173 16.4817L27.5173 10.9817L30.249 8.25003C31.019 7.48003 32.009 7.11336 32.999 7.11336C33.989 7.11336 34.979 7.48003 35.749 8.25003C37.2706 9.7717 37.2706 12.2284 35.749 13.75Z" fill="#0080FF"/>
<path d="M18.2406 6.4167L18.9923 3.86836C19.0656 3.63003 18.9923 3.37336 18.8273 3.19003C18.6623 3.0067 18.369 2.93336 18.1306 3.0067L15.5823 3.75836L13.034 3.0067C12.7956 2.93336 12.539 3.0067 12.3556 3.1717C12.1723 3.35503 12.1173 3.6117 12.1906 3.85003L12.924 6.4167L12.1723 8.96503C12.099 9.20336 12.1723 9.46003 12.3373 9.64336C12.5206 9.8267 12.7773 9.8817 13.0156 9.80836L15.5823 9.07503L18.1306 9.8267C18.204 9.84503 18.259 9.86336 18.3323 9.86336C18.5156 9.86336 18.6806 9.79003 18.8273 9.6617C19.0106 9.47836 19.0656 9.2217 18.9923 8.98336L18.2406 6.4167Z" fill="#0080FF"/>
<path d="M10.9073 17.4167L11.659 14.8684C11.7323 14.63 11.659 14.3734 11.494 14.19C11.3106 14.0067 11.054 13.9517 10.8156 14.025L8.24897 14.7584L5.70064 14.0067C5.46231 13.9334 5.20564 14.0067 5.02231 14.1717C4.83897 14.355 4.78397 14.6117 4.85731 14.85L5.59064 17.4167L4.83897 19.965C4.76564 20.2034 4.83897 20.46 5.00397 20.6434C5.18731 20.8267 5.44397 20.8817 5.68231 20.8084L8.23064 20.0567L10.779 20.8084C10.834 20.8267 10.9073 20.8267 10.9806 20.8267C11.164 20.8267 11.329 20.7534 11.4756 20.625C11.659 20.4417 11.714 20.185 11.6406 19.9467L10.9073 17.4167Z" fill="#0080FF"/>
<path d="M38.4073 26.5834L39.159 24.035C39.2323 23.7967 39.159 23.54 38.994 23.3567C38.8106 23.1734 38.554 23.1184 38.3156 23.1917L35.7673 23.9434L33.219 23.1917C32.9806 23.1184 32.724 23.1917 32.5406 23.3567C32.3573 23.54 32.3023 23.7967 32.3756 24.035L33.1273 26.5834L32.3756 29.1317C32.3023 29.37 32.3756 29.6267 32.5406 29.81C32.724 29.9934 32.9806 30.0484 33.219 29.975L35.7673 29.2234L38.3156 29.975C38.3706 29.9934 38.444 29.9934 38.5173 29.9934C38.7006 29.9934 38.8656 29.92 39.0123 29.7917C39.1956 29.6084 39.2506 29.3517 39.1773 29.1134L38.4073 26.5834Z" fill="#0080FF"/>
</svg>
