<svg width="44" height="44" viewBox="0 0 44 44" fill="none" xmlns="http://www.w3.org/2000/svg">
<g opacity="0.2">
<path d="M35.4196 18.3329H8.59792C5.88458 18.3329 3.68457 16.1146 3.68457 13.4196V8.5979C3.68457 5.88457 5.90292 3.68457 8.59792 3.68457H35.4196C38.1329 3.68457 40.3329 5.9029 40.3329 8.5979V13.4196C40.3329 16.1146 38.1146 18.3329 35.4196 18.3329Z" fill="#0080FF"/>
<path d="M35.4196 40.3329H8.59792C5.88458 40.3329 3.68457 38.1146 3.68457 35.4196V30.5979C3.68457 27.8846 5.90292 25.6846 8.59792 25.6846H35.4196C38.1329 25.6846 40.3329 27.9029 40.3329 30.5979V35.4196C40.3329 38.1146 38.1146 40.3329 35.4196 40.3329Z" fill="#0080FF"/>
</g>
<path d="M11 14.2084C10.2483 14.2084 9.625 13.5851 9.625 12.8334V9.16675C9.625 8.41508 10.2483 7.79175 11 7.79175C11.7517 7.79175 12.375 8.41508 12.375 9.16675V12.8334C12.375 13.5851 11.7517 14.2084 11 14.2084Z" fill="#0080FF"/>
<path d="M18.3333 14.2084C17.5817 14.2084 16.9583 13.5851 16.9583 12.8334V9.16675C16.9583 8.41508 17.5817 7.79175 18.3333 7.79175C19.085 7.79175 19.7083 8.41508 19.7083 9.16675V12.8334C19.7083 13.5851 19.085 14.2084 18.3333 14.2084Z" fill="#0080FF"/>
<path d="M11 36.2084C10.2483 36.2084 9.625 35.5851 9.625 34.8334V31.1667C9.625 30.4151 10.2483 29.7917 11 29.7917C11.7517 29.7917 12.375 30.4151 12.375 31.1667V34.8334C12.375 35.5851 11.7517 36.2084 11 36.2084Z" fill="#0080FF"/>
<path d="M18.3333 36.2084C17.5817 36.2084 16.9583 35.5851 16.9583 34.8334V31.1667C16.9583 30.4151 17.5817 29.7917 18.3333 29.7917C19.085 29.7917 19.7083 30.4151 19.7083 31.1667V34.8334C19.7083 35.5851 19.085 36.2084 18.3333 36.2084Z" fill="#0080FF"/>
<path d="M33 12.3751H25.6667C24.915 12.3751 24.2917 11.7517 24.2917 11.0001C24.2917 10.2484 24.915 9.62508 25.6667 9.62508H33C33.7517 9.62508 34.375 10.2484 34.375 11.0001C34.375 11.7517 33.7517 12.3751 33 12.3751Z" fill="#0080FF"/>
<path d="M33 34.3751H25.6667C24.915 34.3751 24.2917 33.7517 24.2917 33.0001C24.2917 32.2484 24.915 31.6251 25.6667 31.6251H33C33.7517 31.6251 34.375 32.2484 34.375 33.0001C34.375 33.7517 33.7517 34.3751 33 34.3751Z" fill="#0080FF"/>
</svg>
