<svg width="44" height="44" viewBox="0 0 44 44" fill="none" xmlns="http://www.w3.org/2000/svg">
<path opacity="0.2" d="M29.3333 24.2917C30.085 24.2917 30.7083 23.6684 30.7083 22.9167C30.7083 22.165 30.085 21.5417 29.3333 21.5417H24.2917V10.5417H29.3333C30.085 10.5417 30.7083 9.91835 30.7083 9.16669C30.7083 8.41502 30.085 7.79169 29.3333 7.79169H16.5C15.7483 7.79169 15.125 8.41502 15.125 9.16669C15.125 9.91835 15.7483 10.5417 16.5 10.5417H21.5417V33C21.5417 35.7867 23.7967 38.0417 26.5833 38.0417H29.3333C30.085 38.0417 30.7083 37.4184 30.7083 36.6667C30.7083 35.915 30.085 35.2917 29.3333 35.2917H26.5833C25.3183 35.2917 24.2917 34.265 24.2917 33V24.2917H29.3333Z" fill="#0080FF"/>
<path d="M7.33317 14.6667H12.8332C14.8498 14.6667 16.4998 13.0167 16.4998 11V7.33335C16.4998 5.31669 14.8498 3.66669 12.8332 3.66669H7.33317C5.3165 3.66669 3.6665 5.31669 3.6665 7.33335V11C3.6665 13.0167 5.3165 14.6667 7.33317 14.6667Z" fill="#0080FF"/>
<path d="M31.5332 12.8334H38.1332C39.3432 12.8334 40.3332 11.8433 40.3332 10.6333V7.70004C40.3332 6.49004 39.3432 5.50002 38.1332 5.50002H31.5332C30.3232 5.50002 29.3332 6.49004 29.3332 7.70004V10.6333C29.3332 11.8433 30.3232 12.8334 31.5332 12.8334Z" fill="#0080FF"/>
<path d="M38.1332 26.5834H31.5332C30.3232 26.5834 29.3332 25.5933 29.3332 24.3833V21.45C29.3332 20.24 30.3232 19.25 31.5332 19.25H38.1332C39.3432 19.25 40.3332 20.24 40.3332 21.45V24.3833C40.3332 25.5933 39.3432 26.5834 38.1332 26.5834Z" fill="#0080FF"/>
<path d="M31.5332 40.3334H38.1332C39.3432 40.3334 40.3332 39.3433 40.3332 38.1333V35.2C40.3332 33.99 39.3432 33 38.1332 33H31.5332C30.3232 33 29.3332 33.99 29.3332 35.2V38.1333C29.3332 39.3433 30.3232 40.3334 31.5332 40.3334Z" fill="#0080FF"/>
</svg>
