<svg width="44" height="44" viewBox="0 0 44 44" fill="none" xmlns="http://www.w3.org/2000/svg">
<path opacity="0.2" d="M35.2178 11.6591C33.3112 7.80911 29.6262 4.96744 25.3545 4.03244C20.8812 3.04244 16.2978 4.10577 12.7962 6.9291C9.27617 9.7341 7.27783 13.9324 7.27783 18.4241C7.27783 23.1724 10.1195 28.1408 14.4095 31.0191V32.5408C14.3912 33.0541 14.3728 33.8424 14.9962 34.4841C15.6378 35.1441 16.5912 35.2174 17.3428 35.2174H26.7478C27.7378 35.2174 28.4895 34.9424 29.0028 34.4291C29.6995 33.7141 29.6812 32.7974 29.6628 32.3024V31.0191C35.3462 27.1874 38.9212 19.1024 35.2178 11.6591Z" fill="#0080FF"/>
<path d="M27.9771 40.3331C27.8671 40.3331 27.7388 40.3148 27.6288 40.2781C23.9438 39.2331 20.0754 39.2331 16.3904 40.2781C15.7121 40.4615 14.9971 40.0765 14.8138 39.3981C14.6121 38.7198 15.0154 38.0048 15.6938 37.8215C19.8371 36.6481 24.2004 36.6481 28.3438 37.8215C29.0221 38.0231 29.4254 38.7198 29.2238 39.3981C29.0404 39.9665 28.5271 40.3331 27.9771 40.3331Z" fill="#0080FF"/>
<path d="M22.0004 25.3915C21.7621 25.3915 21.5238 25.3365 21.3221 25.2081C20.6621 24.8231 20.4421 23.9798 20.8088 23.3381L22.3671 20.6248H20.8271C19.9104 20.6248 19.1588 20.2215 18.7554 19.5431C18.3521 18.8465 18.3888 18.0031 18.8471 17.1965L20.8088 13.7865C21.1938 13.1265 22.0371 12.9065 22.6788 13.2731C23.3388 13.6581 23.5588 14.5015 23.1921 15.1431L21.6338 17.8748H23.1738C24.0904 17.8748 24.8421 18.2781 25.2454 18.9565C25.6488 19.6531 25.6121 20.4965 25.1538 21.3031L23.1921 24.7131C22.9354 25.1531 22.4771 25.3915 22.0004 25.3915Z" fill="#0080FF"/>
</svg>
